<svg width="820" height="124" viewBox="0 0 820 124" fill="none" xmlns="http://www.w3.org/2000/svg">
<path d="M446.595 63.723C446.595 27.1361 466.416 5.41561 492.912 5.41561C519.409 5.41561 536.532 16.1223 536.532 56.6333C536.532 59.475 536.627 53.9994 536.532 56.6333H513.987C513.987 56.6333 513.987 50.8785 513.987 48.1128C513.987 42.7342 512.817 37.3548 512.817 37.3548C512.196 33.0387 504.597 25.2336 492.817 25.2336C481.851 25.2336 473.906 33.4534 471.529 48.1128C471.074 50.5397 469.881 51.5885 467.514 51.5885H465.866C461.207 51.5885 457.647 55.2835 457.647 60.6621C457.647 66.0399 461.207 69.7356 465.866 69.7356H467.599C469.701 69.7356 470.8 70.6867 470.98 73.3213C472.078 92.5172 481.027 102.103 493.726 102.103C504.048 102.103 511.264 95.1389 512.817 82.3826H536.198C533.736 106.639 517.751 122.238 492.902 122.238C465.771 122.238 446.585 103.468 446.585 63.723H446.595Z" fill="#393939"/>
<path d="M775.845 93.6109V45.7916H759.446V29.3174H761.374C773.557 29.3174 778.865 24.6133 779.606 11.7546L780.062 3.09464H799.024V22.7568C799.024 24.7784 797.838 25.9545 795.635 25.9545H790.783C785.74 25.9545 781.894 29.3951 781.894 33.7688C781.894 38.3953 785.74 41.9234 790.783 41.9234C795.55 41.9234 799.3 38.3953 799.3 33.7688V32.3401C799.3 30.4059 800.582 29.3174 802.785 29.3174H820V45.7916H799.024V91.3365C799.024 99.4036 803.876 101.921 811.027 101.921C813.411 101.921 815.975 101.668 818.358 101.162V117.55C814.512 118.56 810.116 119.143 805.169 119.143C787.679 119.143 775.856 112.34 775.856 93.6012L775.845 93.6109Z" fill="#393939"/>
<path d="M555.077 1.54732H576.396V37.2778C576.396 39.1316 575.22 40.1463 573.404 40.1463H569.048C564.24 40.1463 560.43 43.4344 560.43 47.903C560.43 52.3717 563.883 55.7477 568.597 55.7477C573.309 55.7477 575.944 52.9668 577.309 47.903C581.392 34.3215 590.283 26.5648 606.532 26.5648C625.404 26.5648 636.656 38.7121 636.656 56.9377V117.586H613.606V58.7918C613.606 49.0056 608.253 43.3563 598.092 43.3563C585.569 43.3563 578.127 52.5473 578.127 69.5925V117.596H555.077V29.0235V1.54732Z" fill="#393939"/>
<path d="M155.602 75.3485C155.602 46.0305 175.399 28.6254 201.872 28.6254C228.346 28.6254 245.579 44.5939 245.579 74C245.579 76.2771 245.212 88.1903 245.119 90.3009H233.36H221.757C221.562 91.4144 221.757 84.4765 221.757 80.1666C221.757 75.8566 221.757 71.8288 221.757 70.5305C220.848 55.9988 213.544 44.506 201.779 44.506C190.823 44.506 182.884 51.0928 180.507 62.8397C180.053 64.7844 178.865 65.6249 176.501 65.6249H174.852C170.198 65.6249 166.639 68.5857 166.639 72.8957C166.639 77.2051 170.198 80.1666 174.852 80.1666H176.582C178.684 80.1666 179.779 80.9287 179.96 83.0399C181.055 98.422 189.995 106.103 202.688 106.103C212.997 106.103 220.208 100.523 221.757 90.3009H233.36H245.119C242.655 109.738 226.684 122.238 201.86 122.238C174.759 122.238 155.59 107.198 155.59 75.3485H155.602Z" fill="#393939"/>
<path d="M114.379 1.54732H137.087V122.238H114.379V1.54732Z" fill="#393939"/>
<path d="M383.928 90.5163V42.697H367.528V26.2227H369.457C381.639 26.2227 386.947 21.5186 387.689 8.65992L388.144 0H407.106V19.6622C407.106 21.6838 405.92 22.8598 403.716 22.8598H398.864C393.824 22.8598 389.977 26.3005 389.977 30.6742C389.977 35.3006 393.824 38.8287 398.864 38.8287C403.634 38.8287 407.381 35.3006 407.381 30.6742V29.2455C407.381 27.3113 408.668 26.2227 410.866 26.2227H428.082V42.697H407.106V88.2419C407.106 96.3089 411.959 98.8262 419.109 98.8262C421.494 98.8262 424.061 98.5736 426.44 98.0677V114.455C422.593 115.466 418.197 116.049 413.251 116.049C395.76 116.049 383.938 109.245 383.938 90.5066L383.928 90.5163Z" fill="#393939"/>
<path d="M263.241 95.613C263.241 78.4654 275.258 70.5217 293.872 67.9035L310.015 65.6269C320.196 64.1906 324.323 62.0798 324.323 56.2468C324.323 50.4139 319.369 44.4245 308.18 44.4245C296.99 44.4245 290.478 49.9156 289.926 58.7872H265.807C266.539 41.2198 282.862 28.6254 307.893 28.6254C332.924 28.6254 347.784 41.0439 347.784 61.6599V99.3352C347.784 106.605 348.887 115.135 351.549 117.079V119.785H327.25C326.338 116.493 325.596 112.35 325.139 107.963C319.454 116.073 308.816 122.238 294.784 122.238C276.902 122.238 263.241 112.184 263.241 95.6326V95.613ZM302.484 105.833C316.517 105.833 324.036 96.629 324.863 84.5426L324.959 82.9404C325.235 80.5756 326.794 79.3938 329.36 79.3938H331.376C336.053 79.3938 339.998 76.0131 339.998 71.4501C339.998 66.887 336.244 63.5945 331.376 63.5945C326.508 63.5945 322.573 66.887 322.573 71.5382V72.8864C322.573 76.1007 320.918 77.7035 316.707 78.4654L312.486 79.2274L302.951 81.0058C292.588 82.9502 287.275 86.7507 287.275 94.1865C287.275 101.622 293.787 105.843 302.495 105.843L302.484 105.833Z" fill="#393939"/>
<path d="M16.3891 124V58.8585H0V42.3505H1.92711C14.1019 42.3505 19.4065 37.6368 20.1479 24.7517L20.6028 16.0741H39.5531V35.7765C39.5531 37.8023 38.3673 38.9807 36.1644 38.9807H31.3154C26.2792 38.9807 22.4344 42.4284 22.4344 46.8111C22.4344 51.447 26.2792 54.9823 31.3154 54.9823C36.0833 54.9823 39.8276 51.447 39.8276 46.8111V45.3794C39.8276 43.4413 41.1132 42.3505 43.3099 42.3505H84.8724V58.8585H39.5531V104.497C39.5531 112.58 39.5531 114.343 39.5531 114.343L39.8276 124H16.3891Z" fill="#393939"/>
<rect x="20.594" y="1.72222" width="75.5115" height="16.0741" fill="#393939"/>
<path d="M655.159 92.5184C655.159 75.3708 667.176 67.4271 685.79 64.8089L701.933 62.5323C712.114 61.0959 716.241 58.9851 716.241 53.1522C716.241 47.3193 711.287 41.3299 700.098 41.3299C688.908 41.3299 682.396 46.821 681.844 55.6926H657.725C658.457 38.1251 674.78 25.5307 699.811 25.5307C724.842 25.5307 739.702 37.9492 739.702 58.5653V96.2406C739.702 103.51 740.805 112.04 743.467 113.984V116.691H719.168C718.256 113.398 717.513 109.255 717.057 104.868C711.372 112.978 700.734 119.143 686.702 119.143C668.82 119.143 655.159 109.089 655.159 92.538V92.5184ZM694.402 102.738C708.435 102.738 715.954 93.5343 716.781 81.448L716.877 79.8457C717.153 77.481 718.712 76.2992 721.278 76.2992H723.294C727.971 76.2992 731.916 72.9185 731.916 68.3555C731.916 63.7924 728.162 60.4998 723.294 60.4998C718.426 60.4998 714.491 63.7924 714.491 68.4436V69.7918C714.491 73.0061 712.836 74.6089 708.625 75.3708L704.404 76.1328L694.869 77.9112C684.506 79.8555 679.193 83.6561 679.193 91.0918C679.193 98.527 685.705 102.748 694.413 102.748L694.402 102.738Z" fill="#393939"/>
<path d="M446.595 63.723C446.595 27.1361 466.416 5.41561 492.912 5.41561C519.409 5.41561 536.532 16.1223 536.532 56.6333C536.532 59.475 536.627 53.9994 536.532 56.6333H513.987C513.987 56.6333 513.987 50.8785 513.987 48.1128C513.987 42.7342 512.817 37.3548 512.817 37.3548C512.196 33.0387 504.597 25.2336 492.817 25.2336C481.851 25.2336 473.906 33.4534 471.529 48.1128C471.074 50.5397 469.881 51.5885 467.514 51.5885H465.866C461.207 51.5885 457.647 55.2835 457.647 60.6621C457.647 66.0399 461.207 69.7356 465.866 69.7356H467.599C469.701 69.7356 470.8 70.6867 470.98 73.3213C472.078 92.5172 481.027 102.103 493.726 102.103C504.048 102.103 511.264 95.1389 512.817 82.3826H536.198C533.736 106.639 517.751 122.238 492.902 122.238C465.771 122.238 446.585 103.468 446.585 63.723H446.595Z" fill="#393939"/>
<path d="M775.845 93.6109V45.7916H759.446V29.3174H761.374C773.557 29.3174 778.865 24.6133 779.606 11.7546L780.062 3.09464H799.024V22.7568C799.024 24.7784 797.838 25.9545 795.635 25.9545H790.783C785.74 25.9545 781.894 29.3951 781.894 33.7688C781.894 38.3953 785.74 41.9234 790.783 41.9234C795.55 41.9234 799.3 38.3953 799.3 33.7688V32.3401C799.3 30.4059 800.582 29.3174 802.785 29.3174H820V45.7916H799.024V91.3365C799.024 99.4036 803.876 101.921 811.027 101.921C813.411 101.921 815.975 101.668 818.358 101.162V117.55C814.512 118.56 810.116 119.143 805.169 119.143C787.679 119.143 775.856 112.34 775.856 93.6012L775.845 93.6109Z" fill="#393939"/>
<path d="M555.077 1.54732H576.396V37.2778C576.396 39.1316 575.22 40.1463 573.404 40.1463H569.048C564.24 40.1463 560.43 43.4344 560.43 47.903C560.43 52.3717 563.883 55.7477 568.597 55.7477C573.309 55.7477 575.944 52.9668 577.309 47.903C581.392 34.3215 590.283 26.5648 606.532 26.5648C625.404 26.5648 636.656 38.7121 636.656 56.9377V117.586H613.606V58.7918C613.606 49.0056 608.253 43.3563 598.092 43.3563C585.569 43.3563 578.127 52.5473 578.127 69.5925V117.596H555.077V29.0235V1.54732Z" fill="#393939"/>
<path d="M155.602 75.3485C155.602 46.0305 175.399 28.6254 201.872 28.6254C228.346 28.6254 245.579 44.5939 245.579 74C245.579 76.2771 245.212 88.1903 245.119 90.3009H233.36H221.757C221.562 91.4144 221.757 84.4765 221.757 80.1666C221.757 75.8566 221.757 71.8288 221.757 70.5305C220.848 55.9988 213.544 44.506 201.779 44.506C190.823 44.506 182.884 51.0928 180.507 62.8397C180.053 64.7844 178.865 65.6249 176.501 65.6249H174.852C170.198 65.6249 166.639 68.5857 166.639 72.8957C166.639 77.2051 170.198 80.1666 174.852 80.1666H176.582C178.684 80.1666 179.779 80.9287 179.96 83.0399C181.055 98.422 189.995 106.103 202.688 106.103C212.997 106.103 220.208 100.523 221.757 90.3009H233.36H245.119C242.655 109.738 226.684 122.238 201.86 122.238C174.759 122.238 155.59 107.198 155.59 75.3485H155.602Z" fill="#393939"/>
<path d="M114.379 1.54732H137.087V122.238H114.379V1.54732Z" fill="#393939"/>
<path d="M383.928 90.5163V42.697H367.528V26.2227H369.457C381.639 26.2227 386.947 21.5186 387.689 8.65992L388.144 0H407.106V19.6622C407.106 21.6838 405.92 22.8598 403.716 22.8598H398.864C393.824 22.8598 389.977 26.3005 389.977 30.6742C389.977 35.3006 393.824 38.8287 398.864 38.8287C403.634 38.8287 407.381 35.3006 407.381 30.6742V29.2455C407.381 27.3113 408.668 26.2227 410.866 26.2227H428.082V42.697H407.106V88.2419C407.106 96.3089 411.959 98.8262 419.109 98.8262C421.494 98.8262 424.061 98.5736 426.44 98.0677V114.455C422.593 115.466 418.197 116.049 413.251 116.049C395.76 116.049 383.938 109.245 383.938 90.5066L383.928 90.5163Z" fill="#393939"/>
<path d="M263.241 95.613C263.241 78.4654 275.258 70.5217 293.872 67.9035L310.015 65.6269C320.196 64.1906 324.323 62.0798 324.323 56.2468C324.323 50.4139 319.369 44.4245 308.18 44.4245C296.99 44.4245 290.478 49.9156 289.926 58.7872H265.807C266.539 41.2198 282.862 28.6254 307.893 28.6254C332.924 28.6254 347.784 41.0439 347.784 61.6599V99.3352C347.784 106.605 348.887 115.135 351.549 117.079V119.785H327.25C326.338 116.493 325.596 112.35 325.139 107.963C319.454 116.073 308.816 122.238 294.784 122.238C276.902 122.238 263.241 112.184 263.241 95.6326V95.613ZM302.484 105.833C316.517 105.833 324.036 96.629 324.863 84.5426L324.959 82.9404C325.235 80.5756 326.794 79.3938 329.36 79.3938H331.376C336.053 79.3938 339.998 76.0131 339.998 71.4501C339.998 66.887 336.244 63.5945 331.376 63.5945C326.508 63.5945 322.573 66.887 322.573 71.5382V72.8864C322.573 76.1007 320.918 77.7035 316.707 78.4654L312.486 79.2274L302.951 81.0058C292.588 82.9502 287.275 86.7507 287.275 94.1865C287.275 101.622 293.787 105.843 302.495 105.843L302.484 105.833Z" fill="#393939"/>
<path d="M16.3891 124V58.8585H0V42.3505H1.92711C14.1019 42.3505 19.4065 37.6368 20.1479 24.7517L20.6028 16.0741H39.5531V35.7765C39.5531 37.8023 38.3673 38.9807 36.1644 38.9807H31.3154C26.2792 38.9807 22.4344 42.4284 22.4344 46.8111C22.4344 51.447 26.2792 54.9823 31.3154 54.9823C36.0833 54.9823 39.8276 51.447 39.8276 46.8111V45.3794C39.8276 43.4413 41.1132 42.3505 43.3099 42.3505H84.8724V58.8585H39.5531V104.497C39.5531 112.58 39.5531 114.343 39.5531 114.343L39.8276 124H16.3891Z" fill="#393939"/>
<path d="M655.159 92.5184C655.159 75.3708 667.176 67.4271 685.79 64.8089L701.933 62.5323C712.114 61.0959 716.241 58.9851 716.241 53.1522C716.241 47.3193 711.287 41.3299 700.098 41.3299C688.908 41.3299 682.396 46.821 681.844 55.6926H657.725C658.457 38.1251 674.78 25.5307 699.811 25.5307C724.842 25.5307 739.702 37.9492 739.702 58.5653V96.2406C739.702 103.51 740.805 112.04 743.467 113.984V116.691H719.168C718.256 113.398 717.513 109.255 717.057 104.868C711.372 112.978 700.734 119.143 686.702 119.143C668.82 119.143 655.159 109.089 655.159 92.538V92.5184ZM694.402 102.738C708.435 102.738 715.954 93.5343 716.781 81.448L716.877 79.8457C717.153 77.481 718.712 76.2992 721.278 76.2992H723.294C727.971 76.2992 731.916 72.9185 731.916 68.3555C731.916 63.7924 728.162 60.4998 723.294 60.4998C718.426 60.4998 714.491 63.7924 714.491 68.4436V69.7918C714.491 73.0061 712.836 74.6089 708.625 75.3708L704.404 76.1328L694.869 77.9112C684.506 79.8555 679.193 83.6561 679.193 91.0918C679.193 98.527 685.705 102.748 694.413 102.748L694.402 102.738Z" fill="#393939"/>
</svg>
